nColumns=19
nRows=124
DataType=double
version=3
OpenSimVersion=4.1
endheader
time	ground_force_1_vx	ground_force_1_vy	ground_force_1_vz	ground_force_1_px	ground_force_1_py	ground_force_1_pz	ground_force_1_mx	ground_force_1_my	ground_force_1_mz	ground_force_2_vx	ground_force_2_vy	ground_force_2_vz	ground_force_2_px	ground_force_2_py	ground_force_2_pz	ground_force_2_mx	ground_force_2_my	ground_force_2_mz
0.08	0	0	0	0.000489477	0	-0.000268209	0	0	0	-9.94239	1310.69	140.895	1.02517	0	-0.322194	0	-16.3033	0
0.09	0	0	0	0.000489477	0	-0.000268209	0	0	0	-92.3691	1484.47	68.3853	0.983646	0	-0.331196	-0	1.27456	-0
0.1	0	0	0	0.000489477	0	-0.00026821	0	0	0	-147.555	1627.32	-4.58307	0.945207	0	-0.33486	-0	14.5522	-0
0.11	0	0	0	0.000489476	0	-0.00026821	0	0	0	-143.254	1728.71	-47.043	0.908834	0	-0.334696	-0	21.3945	-0
0.12	0	0	0	0.000489476	0	-0.00026821	0	0	0	-100.909	1806.15	-56.9672	0.872428	0	-0.334084	-0	21.7486	-0
0.13	0	0	0	0.000489475	0	-0.000268211	0	0	0	-46.8083	1830.1	-50.9809	0.836962	0	-0.334293	-0	17.4596	-0
0.14	0	0	0	0.000489475	0	-0.000268212	0	0	0	7.31513	1781.09	-45.0698	0.802696	0	-0.33485	-0	11.2984	-0
0.15	0	0	0	0.000489474	0	-0.000268213	0	0	0	59.9064	1667.1	-45.2182	0.769807	0	-0.334461	-0	5.79576	-0
0.16	0	0	0	0.000489473	0	-0.000268214	0	0	0	111.078	1494.51	-50.6931	0.737653	0	-0.332891	-0	2.43751	-0
0.17	0	0	0	0.000489472	0	-0.000268215	0	0	0	156.361	1261.64	-57.7812	0.70418	0	-0.330899	-0	1.44834	-0
0.18	0	0	0	0.000489471	0	-0.000268216	0	0	0	183.203	973.799	-61.2792	0.665715	0	-0.329113	-0	2.08982	-0
0.19	0	0	0	0.00048947	0	-0.000268217	0	0	0	180.639	662.088	-58.2344	0.618945	0	-0.328109	-0	3.22787	-0
0.2	0	0	0	0.000489468	0	-0.000268219	0	0	0	142.94	384.028	-49.1366	0.569037	0	-0.328399	-0	3.8877	-0
0.21	0	0	0	0.000489467	0	-0.000268221	0	0	0	86.0808	186.272	-35.619	0.533844	0	-0.329427	-0	3.59413	-0
0.22	0	0	0	0.000489465	0	-0.000268222	0	0	0	38.1385	75.8102	-20.8969	0.566812	0	-0.325261	-0	2.42605	-0
0.23	0	0	0	0.000489463	0	-0.000268224	0	0	0	11.8386	27.301	-9.43992	0.787054	0	-0.29807	-0	0.824793	-0
0.24	0	0	0	0.000489461	0	-0.000268226	0	0	0	0	0	0	0.000489459	0	-0.000268228	0	0	0
0.25	0	0	0	0.000489459	0	-0.000268229	0	0	0	0	0	0	0.000489457	0	-0.00026823	0	0	0
0.26	0	0	0	0.000489457	0	-0.000268231	0	0	0	0	0	0	0.000489455	0	-0.000268233	0	0	0
0.27	0	0	0	0.000489455	0	-0.000268233	0	0	0	0	0	0	0.000489452	0	-0.000268236	0	0	0
0.28	0	0	0	0.000489452	0	-0.000268236	0	0	0	0	0	0	0.000489449	0	-0.000268238	0	0	0
0.29	0	0	0	0.00048945	0	-0.000268239	0	0	0	0	0	0	0.000489446	0	-0.000268241	0	0	0
0.3	0	0	0	0.000489447	0	-0.000268242	0	0	0	0	0	0	0.000489443	0	-0.000268244	0	0	0
0.31	0	0	0	0.000489444	0	-0.000268244	0	0	0	0	0	0	0.00048944	0	-0.000268248	0	0	0
0.32	0	0	0	0.000489442	0	-0.000268248	0	0	0	0	0	0	0.000489437	0	-0.000268251	0	0	0
0.33	-8.81207	18.8088	-6.45677	1.0983	0	-0.287261	-0	2.58911	-0	0	0	0	0.000489434	0	-0.000268255	0	0	0
0.34	-31.0577	74.3236	-15.0075	1.13687	0	-0.325771	-0	4.57057	-0	0	0	0	0.00048943	0	-0.000268258	0	0	0
0.35	-83.9738	224.32	-25.2927	1.12857	0	-0.338554	-0	5.88305	-0	0	0	0	0.000489427	0	-0.000268262	0	0	0
0.36	-142.104	488.01	-29.4658	1.11109	0	-0.34373	-0	5.80469	-0	0	0	0	0.000489423	0	-0.000268266	0	0	0
0.37	-152.956	812.49	-19.3121	1.08277	0	-0.348528	-0	3.98329	-0	0	0	0	0.000489419	0	-0.00026827	0	0	0
0.38	-149.932	1124.94	6.04974	1.04781	0	-0.35411	-0	0.742106	-0	0	0	0	0.000489415	0	-0.000268274	0	0	0
0.39	-173.984	1352.63	38.0607	1.01269	0	-0.359097	0	-2.94544	0	0	0	0	0.000489411	0	-0.000268279	0	0	0
0.4	-187.025	1480.46	62.7266	0.976181	0	-0.362428	0	-5.85655	0	0	0	0	0.000489407	0	-0.000268283	0	0	0
0.41	-171.256	1555.34	71.2981	0.936429	0	-0.363912	0	-7.08446	0	0	0	0	0.000489402	0	-0.000268288	0	0	0
0.42	-131.504	1606.04	66.448	0.894251	0	-0.363487	0	-6.43164	0	0	0	0	0.000489398	0	-0.000268293	0	0	0
0.43	-67.2616	1623.67	55.88	0.851297	0	-0.362123	0	-4.41803	0	0	0	0	0.000489393	0	-0.000268297	0	0	0
0.44	13.8166	1593.54	46.854	0.807273	0	-0.360947	0	-1.95321	0	0	0	0	0.000489388	0	-0.000268302	0	0	0
0.45	99.2833	1509.08	43.6693	0.761786	0	-0.360093	-0	0.109201	-0	0	0	0	0.000489383	0	-0.000268308	0	0	0
0.46	179.41	1368.94	45.3181	0.715225	0	-0.359783	-0	1.30299	-0	0	0	0	0.000489378	0	-0.000268313	0	0	0
0.47	237.407	1176.67	48.5013	0.668509	0	-0.360088	-0	1.6362	-0	0	0	0	0.000489373	0	-0.000268318	0	0	0
0.48	260.812	943.342	50.9105	0.624664	0	-0.360172	-0	1.45555	-0	0	0	0	0.000489368	0	-0.000268324	0	0	0
0.49	245.31	688.497	50.3053	0.586083	0	-0.359675	-0	1.20301	-0	0	0	0	0.000489362	0	-0.00026833	0	0	0
0.5	196.28	445.154	44.9459	0.552178	0	-0.358762	-0	1.18595	-0	0	0	0	0.000489357	0	-0.000268335	0	0	0
0.51	131.504	249.369	35.2316	0.52326	0	-0.35649	-0	1.45411	-0	0	0	0	0.000489351	0	-0.000268341	0	0	0
0.52	71.0866	117.743	23.2535	0.500087	0	-0.352654	-0	1.82294	-0	0	0	0	0.000489345	0	-0.000268347	0	0	0
0.53	28.729	45.2948	12.0655	0.491994	0	-0.351145	-0	2.01347	-0	0	0	0	0.000489339	0	-0.000268353	0	0	0
0.54	7.86214	14.5396	4.68594	0.565886	0	-0.345379	-0	1.83165	-0	0	0	0	0.000489333	0	-0.00026836	0	0	0
0.55	0	0	0	0.000489344	0	-0.000268353	0	0	0	0	0	0	0.000489327	0	-0.000268366	0	0	0
0.56	0	0	0	0.000489338	0	-0.000268359	0	0	0	0	0	0	0.000489321	0	-0.000268373	0	0	0
0.57	0	0	0	0.000489333	0	-0.000268365	0	0	0	0	0	0	0.000489315	0	-0.000268379	0	0	0
0.58	0	0	0	0.000489327	0	-0.000268371	0	0	0	0	0	0	0.000489308	0	-0.000268386	0	0	0
0.59	0	0	0	0.000489321	0	-0.000268378	0	0	0	0	0	0	0.000489302	0	-0.000268393	0	0	0
0.6	0	0	0	0.000489315	0	-0.000268384	0	0	0	0	0	0	0.000489295	0	-0.0002684	0	0	0
0.61	0	0	0	0.000489309	0	-0.000268391	0	0	0	0	0	0	0.000489288	0	-0.000268407	0	0	0
0.62	0	0	0	0.000489303	0	-0.000268397	0	0	0	-16.2271	32.2712	-0.519066	1.158	0	-0.424183	-0	1.49399	-0
0.63	0	0	0	0.000489297	0	-0.000268404	0	0	0	-57.1206	128.22	6.02263	1.11802	0	-0.432591	-0	0.840337	-0
0.64	0	0	0	0.00048929	0	-0.000268411	0	0	0	-130.197	365.881	22.4886	1.10517	0	-0.425519	0	-0.04817	0
0.65	0	0	0	0.000489284	0	-0.000268418	0	0	0	-177.678	740.667	42.9699	1.08997	0	-0.414365	0	-0.611299	0
0.66	0	0	0	0.000489277	0	-0.000268425	0	0	0	-172.954	1119.57	50.6285	1.0658	0	-0.407698	0	-0.44335	0
0.67	0	0	0	0.000489271	0	-0.000268432	0	0	0	-186.373	1372.37	40.8526	1.03703	0	-0.406701	-0	0.34198	-0
0.68	0	0	0	0.000489264	0	-0.000268439	0	0	0	-209.561	1506.23	30.9352	1.00282	0	-0.406293	-0	1.13009	-0
0.69	0	0	0	0.000489257	0	-0.000268447	0	0	0	-199.885	1599.49	33.1884	0.962621	0	-0.40601	-0	1.24736	-0
0.7	0	0	0	0.00048925	0	-0.000268454	0	0	0	-153.914	1675.64	44.6233	0.919175	0	-0.406726	-0	0.442706	-0
0.71	0	0	0	0.000489243	0	-0.000268462	0	0	0	-83.1779	1713.57	56.6118	0.875199	0	-0.4076	0	-0.951163	0
0.72	0	0	0	0.000489236	0	-0.000268469	0	0	0	2.59898	1700.03	61.4009	0.831262	0	-0.407995	0	-2.21919	0
0.73	0	0	0	0.000489229	0	-0.000268477	0	0	0	88.9548	1633.07	55.5795	0.787161	0	-0.407275	0	-2.64606	0
0.74	0	0	0	0.000489222	0	-0.000268485	0	0	0	166.064	1511.2	40.3072	0.743375	0	-0.405834	0	-1.8541	0
0.75	0	0	0	0.000489215	0	-0.000268493	0	0	0	225.999	1334.59	20.5763	0.699589	0	-0.403573	-0	0.046796	-0
0.76	0	0	0	0.000489207	0	-0.000268501	0	0	0	257.17	1106.39	0.363367	0.657144	0	-0.400927	-0	2.52183	-0
0.77	0	0	0	0.0004892	0	-0.000268509	0	0	0	254.603	840.115	-17.5057	0.617322	0	-0.399095	-0	4.82193	-0
0.78	0	0	0	0.000489192	0	-0.000268517	0	0	0	216.117	568.069	-28.4026	0.581466	0	-0.397809	-0	6.25894	-0
0.79	0	0	0	0.000489185	0	-0.000268525	0	0	0	150.632	332.417	-29.8625	0.551351	0	-0.3957	-0	6.45575	-0
0.8	0	0	0	0.000489177	0	-0.000268534	0	0	0	82.1868	162.638	-24.4845	0.5221	0	-0.39482	-0	5.46371	-0
0.81	0	0	0	0.000489169	0	-0.000268542	0	0	0	32.1763	63.8631	-15.7503	0.500612	0	-0.396803	-0	3.69636	-0
0.82	0	0	0	0.000489161	0	-0.000268551	0	0	0	7.73828	21.6062	-6.63488	0.612608	0	-0.359966	-0	1.73145	-0
0.83	0	0	0	0.000489153	0	-0.000268559	0	0	0	0	0	0	0.000489113	0	-0.000268591	0	0	0
0.84	0	0	0	0.000489145	0	-0.000268568	0	0	0	0	0	0	0.000489104	0	-0.000268601	0	0	0
0.85	0	0	0	0.000489137	0	-0.000268577	0	0	0	0	0	0	0.000489095	0	-0.00026861	0	0	0
0.86	0	0	0	0.000489129	0	-0.000268586	0	0	0	0	0	0	0.000489085	0	-0.00026862	0	0	0
0.87	0	0	0	0.000489121	0	-0.000268594	0	0	0	0	0	0	0.000489076	0	-0.000268629	0	0	0
0.88	0	0	0	0.000489112	0	-0.000268603	0	0	0	0	0	0	0.000489067	0	-0.000268639	0	0	0
0.89	0	0	0	0.000489104	0	-0.000268613	0	0	0	0	0	0	0.000489057	0	-0.000268649	0	0	0
0.9	0	0	0	0.000489096	0	-0.000268622	0	0	0	0	0	0	0.000489048	0	-0.000268659	0	0	0
0.91	0	0	0	0.000489087	0	-0.000268631	0	0	0	0	0	0	0.000489038	0	-0.000268669	0	0	0
0.92	-7.82504	25.3323	-8.83027	1.081	0	-0.279125	-0	2.6651	-0	0	0	0	0.000489029	0	-0.000268679	0	0	0
0.93	-30.6791	102.525	-20.3094	1.11806	0	-0.298429	-0	3.7431	-0	0	0	0	0.000489019	0	-0.000268689	0	0	0
0.94	-82.0237	318.775	-34.2323	1.12352	0	-0.30515	-0	3.83491	-0	0	0	0	0.000489009	0	-0.0002687	0	0	0
0.95	-139.504	696.685	-40.4036	1.10941	0	-0.309671	-0	2.48368	-0	0	0	0	0.000489	0	-0.00026871	0	0	0
0.96	-172.082	1093.07	-29.1144	1.08646	0	-0.312714	0	-0.170064	0	0	0	0	0.00048899	0	-0.00026872	0	0	0
0.97	-207.123	1334.07	-8.45064	1.05955	0	-0.314997	0	-3.28139	0	0	0	0	0.00048898	0	-0.000268731	0	0	0
0.98	-242.19	1433.54	2.45183	1.02832	0	-0.317344	0	-5.66584	0	0	0	0	0.00048897	0	-0.000268741	0	0	0
0.99	-241.206	1518.3	-1.20192	0.992354	0	-0.317994	0	-6.414	0	0	0	0	0.00048896	0	-0.000268752	0	0	0
1	-202.604	1626.38	-11.3526	0.955602	0	-0.315958	0	-5.31235	0	0	0	0	0.000488949	0	-0.000268762	0	0	0
1.01	-141.528	1706.89	-23.6702	0.919857	0	-0.313859	0	-2.86596	0	0	0	0	0.000488939	0	-0.000268773	0	0	0
1.02	-76.561	1722.06	-34.7521	0.885139	0	-0.31257	0	-0.020973	0	0	0	0	0.000488929	0	-0.000268784	0	0	0
1.03	-19.316	1674.35	-38.4229	0.851593	0	-0.310945	-0	2.24757	-0	0	0	0	0.000488919	0	-0.000268795	0	0	0
1.04	32.7485	1575.05	-33.7344	0.818541	0	-0.309382	-0	3.31185	-0	0	0	0	0.000488908	0	-0.000268805	0	0	0
1.05	84.1528	1426.57	-23.8199	0.785043	0	-0.309212	-0	3.07261	-0	0	0	0	0.000488898	0	-0.000268816	0	0	0
1.06	130.477	1231.14	-9.21252	0.750863	0	-0.309654	-0	1.91249	-0	0	0	0	0.000488888	0	-0.000268827	0	0	0
1.07	165.03	991.105	7.16712	0.713683	0	-0.309718	-0	0.492838	-0	0	0	0	0.000488877	0	-0.000268838	0	0	0
1.08	178.297	720.594	18.3964	0.669017	0	-0.310637	0	-0.529921	0	0	0	0	0.000488866	0	-0.000268849	0	0	0
1.09	161.089	462.15	22.6589	0.618426	0	-0.312464	0	-0.763847	0	0	0	0	0.000488856	0	-0.00026886	0	0	0
1.1	117.141	258.705	22.9295	0.573718	0	-0.311711	0	-0.193822	0	0	0	0	0.000488845	0	-0.000268871	0	0	0
1.11	67.0586	124.111	19.1327	0.556854	0	-0.30481	-0	0.871717	-0	0	0	0	0.000488835	0	-0.000268883	0	0	0
1.12	28.5608	48.2002	11.1283	0.60926	0	-0.296449	-0	1.94832	-0	0	0	0	0.000488824	0	-0.000268894	0	0	0
1.13	8.36972	15.0734	4.28946	0.878048	0	-0.278781	-0	2.57379	-0	0	0	0	0.000488813	0	-0.000268905	0	0	0
1.14	0	0	0	0.000488877	0	-0.000268858	0	0	0	0	0	0	0.000488802	0	-0.000268916	0	0	0
1.15	0	0	0	0.000488868	0	-0.000268868	0	0	0	0	0	0	0.000488792	0	-0.000268928	0	0	0
1.16	0	0	0	0.000488858	0	-0.000268878	0	0	0	0	0	0	0.000488781	0	-0.000268939	0	0	0
1.17	0	0	0	0.000488849	0	-0.000268889	0	0	0	0	0	0	0.00048877	0	-0.000268951	0	0	0
1.18	0	0	0	0.000488839	0	-0.000268899	0	0	0	0	0	0	0.000488759	0	-0.000268962	0	0	0
1.19	0	0	0	0.000488829	0	-0.00026891	0	0	0	0	0	0	0.000488748	0	-0.000268973	0	0	0
1.2	0	0	0	0.000488819	0	-0.00026892	0	0	0	0	0	0	0.000488737	0	-0.000268985	0	0	0
1.21	0	0	0	0.00048881	0	-0.000268931	0	0	0	0	0	0	0.000488726	0	-0.000268996	0	0	0
1.22	0	0	0	0.0004888	0	-0.000268941	0	0	0	0	0	0	0.000488715	0	-0.000269008	0	0	0
1.23	0	0	0	0.00048879	0	-0.000268952	0	0	0	0	0	0	0.000488704	0	-0.000269019	0	0	0
1.24	0	0	0	0.00048878	0	-0.000268963	0	0	0	0	0	0	0.000488693	0	-0.000269031	0	0	0
1.25	0	0	0	0.00048877	0	-0.000268973	0	0	0	-14.2478	34.4232	5.23081	1.14511	0	-0.361151	-0	0.701126	-0
1.26	0	0	0	0.000488761	0	-0.000268984	0	0	0	-48.7251	130.474	12.2024	1.08742	0	-0.385171	0	-1.14653	0
1.27	0	0	0	0.000488751	0	-0.000268995	0	0	0	-116.245	373.593	26.2176	1.07342	0	-0.381557	0	-2.64582	0
1.28	0	0	0	0.000488741	0	-0.000269005	0	0	0	-168.2	777.132	41.2141	1.05538	0	-0.371109	0	-2.96021	0
1.29	0	0	0	0.000488731	0	-0.000269016	0	0	0	-166.739	1212.38	39.5463	1.02892	0	-0.36388	0	-1.66556	0
1.3	0	0	0	0.000488721	0	-0.000269026	0	0	0	-171.811	1501.24	15.4465	1.00049	0	-0.361213	-0	0.864082	-0
1.31	0	0	0	0.000488711	0	-0.000269037	0	0	0	-188.914	1624.05	-10.8269	0.969142	0	-0.359734	-0	3.55484	-0
